<svg width="73" height="66" viewBox="0 0 73 66" fill="none" xmlns="http://www.w3.org/2000/svg">
<path d="M58.6057 0H37.8344L51.0513 16.5383L58.6057 0ZM14.5513 0L22.1057 16.5383L35.3226 0H14.5513ZM36.5785 6.28621L26.5312 18.8571H46.6258L36.5785 6.28621ZM62.7878 2.80795L55.458 18.8571H73L62.7878 2.80795ZM10.3691 2.80795L0 18.8571H17.699L10.3691 2.80795ZM19.4164 23.5714H0.156989L35.1342 66H35.2174L19.4164 23.5714ZM53.7406 23.5714L37.9396 66H38.0228L73 23.5714H53.7406ZM48.0999 23.5714H25.0571L36.5785 54.2143L48.0999 23.5714Z" fill="#008756"/>
</svg>
