<svg xmlns="http://www.w3.org/2000/svg" width="108" height="78" fill="none"><path fill="#008756" d="M0 63.375v-19.5h40.255L9.817 19.988v14.137H0V4.875h4.91l54 29.494V0h24.544L108 29.25v34.125H95.727c0 4.063-1.431 7.516-4.295 10.36C88.568 76.577 85.09 78 81 78c-4.09 0-7.568-1.422-10.432-4.266-2.864-2.843-4.295-6.296-4.295-10.359h-27c0 4.063-1.432 7.516-4.296 10.36C32.114 76.577 28.637 78 24.546 78c-4.091 0-7.569-1.422-10.432-4.266-2.864-2.843-4.296-6.296-4.296-10.359H0Zm24.546 7.313c2.127 0 3.886-.691 5.277-2.072 1.39-1.382 2.086-3.129 2.086-5.241 0-2.112-.695-3.86-2.086-5.24-1.391-1.382-3.15-2.072-5.277-2.072-2.128 0-3.887.69-5.278 2.071-1.39 1.382-2.086 3.129-2.086 5.241 0 2.112.695 3.86 2.086 5.24 1.391 1.382 3.15 2.073 5.277 2.073Zm56.454 0c2.127 0 3.886-.691 5.277-2.072 1.391-1.382 2.087-3.129 2.087-5.241 0-2.112-.696-3.86-2.087-5.24-1.39-1.382-3.15-2.072-5.277-2.072-2.127 0-3.886.69-5.277 2.071-1.391 1.382-2.087 3.129-2.087 5.241 0 2.112.696 3.86 2.087 5.24 1.39 1.382 3.15 2.073 5.277 2.073ZM68.727 29.25h26.51L78.79 9.75H68.727v19.5Z"/></svg>