<svg xmlns="http://www.w3.org/2000/svg" width="70" height="91" fill="none"><path fill="#008756" d="M53 71.495V1.505C53 .672 52.359 0 51.567 0H1.433C.64 0 0 .673 0 1.504v69.991C0 72.327.641 73 1.433 73h50.134L53 71.495Z"/><path fill="#008756" d="M61.977 80.899V10.513C61.977 9.677 61.3 9 60.464 9h-3.475v66.911c0 .836-.677 1.513-1.513 1.513H6v3.475c0 .836.677 1.513 1.513 1.513h52.951c.836 0 1.513-.677 1.513-1.513Z"/><path fill="#008756" d="M68.463 17h-3.475v66.91c0 .835-.677 1.513-1.513 1.513H14v3.475c0 .836.677 1.513 1.513 1.513h52.951c.836 0 1.513-.677 1.513-1.513V18.512A1.513 1.513 0 0 0 68.463 17Z"/></svg>