<svg xmlns="http://www.w3.org/2000/svg" width="90" height="73" fill="none"><path fill="#008756" d="M69.75 31.938c-11.194 0-20.25 9.182-20.25 20.53C49.5 63.819 58.556 73 69.75 73S90 63.818 90 52.469c0-11.35-9.056-20.532-20.25-20.532Zm9 21.429c0 .756-.619 1.383-1.364 1.383h-8.522c-.745 0-1.364-.627-1.364-1.383V42.446c0-.756.619-1.383 1.364-1.383h1.772c.745 0 1.364.627 1.364 1.383v7.742h5.386c.745 0 1.364.627 1.364 1.383v1.796ZM45 52.469c0-3.964.942-7.714 2.56-11.05-1.126-.214-2.279-.356-3.46-.356h-2.348a24.225 24.225 0 0 1-10.252 2.28c-3.656 0-7.116-.826-10.252-2.28H18.9C8.466 41.063 0 49.645 0 60.224v5.931C0 69.935 3.023 73 6.75 73h48.81A25.195 25.195 0 0 1 45 52.469ZM31.5 36.5c9.942 0 18-8.17 18-18.25S41.442 0 31.5 0s-18 8.17-18 18.25 8.058 18.25 18 18.25Z"/></svg>