<svg width="1440" height="351" viewBox="0 0 1440 351" fill="none" xmlns="http://www.w3.org/2000/svg">
<path fill-rule="evenodd" clip-rule="evenodd" d="M-6.29013 53.9974L41.9195 37.4973C90.1292 20.9971 186.549 -12.0032 282.968 4.49699C379.387 20.9971 475.807 86.9977 572.226 128.248C668.645 169.498 765.065 185.999 861.484 185.999C957.903 185.999 1054.32 169.498 1150.74 136.498C1247.16 103.498 1343.58 53.9974 1391.79 29.2472L1440 4.49699V351H1391.79C1343.58 351 1247.16 351 1150.74 351C1054.32 351 957.903 351 861.484 351C765.065 351 668.645 351 572.226 351C475.807 351 379.387 351 282.968 351C186.549 351 90.1292 351 41.9195 351H-6.29013V53.9974Z" fill="#008756"/>
</svg>
